<?xml version="1.0" standalone="no"?>
<!DOCTYPE svg PUBLIC "-//W3C//DTD SVG 20010904//EN"
 "http://www.w3.org/TR/2001/REC-SVG-20010904/DTD/svg10.dtd">
<svg version="1.0" xmlns="http://www.w3.org/2000/svg"
 width="600.000000pt" height="457.000000pt" viewBox="0 0 600.000000 457.000000"
 preserveAspectRatio="xMidYMid meet">
<metadata>
Created by potrace 1.14, written by Peter Selinger 2001-2017
</metadata>
<g transform="translate(0.000000,457.000000) scale(0.100000,-0.100000)"
fill="#000000" stroke="none">
<path d="M2783 4554 c-65 -32 -67 -11 82 -769 75 -378 134 -689 132 -691 -2
-3 -658 64 -1457 147 -1387 145 -1454 151 -1487 135 -18 -9 -38 -28 -43 -42
-7 -17 -9 -389 -8 -1044 l3 -1018 24 -26 c13 -14 40 -27 62 -31 35 -6 39 -10
39 -37 0 -43 48 -88 94 -88 20 0 644 63 1387 141 743 77 1353 139 1355 136 2
-2 -50 -260 -116 -572 -104 -491 -119 -574 -109 -602 13 -41 44 -63 86 -63 31
0 33 -2 33 -33 0 -63 61 -109 118 -89 16 5 694 479 1508 1051 1458 1027 1514
1069 1514 1118 0 29 -27 66 -77 104 -30 22 -58 50 -62 63 -6 13 -591 450
-1461 1090 -798 588 -1474 1084 -1502 1102 -56 38 -69 40 -115 18z m1604
-1376 c661 -486 1202 -885 1202 -888 0 -6 -2433 -1719 -2437 -1715 -2 1 41
210 94 464 86 413 95 464 84 491 -14 33 -55 60 -92 60 -19 0 -23 6 -26 37 -3
41 -31 78 -68 87 -13 4 -651 -59 -1418 -139 -766 -80 -1399 -145 -1405 -145
-13 0 -16 1626 -4 1633 5 2 664 -65 1466 -149 802 -83 1468 -150 1480 -147 31
8 64 40 71 69 5 19 -197 1092 -239 1273 -6 23 -4 22 42 -12 26 -20 589 -433
1250 -919z"/>
</g>
</svg>
